grf
version=1
nRows=9
nColumns=37
inDegrees=no
endheader
time	ground_force_1_vx	ground_force_1_vy	ground_force_1_vz	ground_force_1_px	ground_force_1_py	ground_force_1_pz	ground_moment_1_mx	ground_moment_1_my	ground_moment_1_mz	ground_force_2_vx	ground_force_2_vy	ground_force_2_vz	ground_force_2_px	ground_force_2_py	ground_force_2_pz	ground_moment_2_mx	ground_moment_2_my	ground_moment_2_mz	ground_force_3_vx	ground_force_3_vy	ground_force_3_vz	ground_force_3_px	ground_force_3_py	ground_force_3_pz	ground_moment_3_mx	ground_moment_3_my	ground_moment_3_mz	ground_force_4_vx	ground_force_4_vy	ground_force_4_vz	ground_force_4_px	ground_force_4_py	ground_force_4_pz	ground_moment_4_mx	ground_moment_4_my	ground_moment_4_mz
      4.41000000	      0.00000000	     -0.00000000	      0.00000000	      0.00000000	      0.00000000	      0.00000000	      0.00000000	      0.00000000	      0.00000000	     19.03349304	     87.68707275	   -510.59567261	   -317.68253333	  -1150.30742991	      0.00000000	      0.00000000	     -0.00000000	   -246.39104639	     -8.51624164	    -71.91368792	   -423.14898682	   -341.01043877	   -614.45169660	      0.00000000	      0.00000000	     -0.00000000	  -8489.47250505	    -35.16284800	     16.33688280	     75.43246460	    606.92463284	   -562.70506905	      0.00000000	      0.00000000	     -0.00000000	   -123.21520539
      4.42000000	      0.00000000	     -0.00000000	      0.00000000	      0.00000000	      0.00000000	      0.00000000	      0.00000000	      0.00000000	      0.00000000	     20.31394386	     83.60432434	   -498.89636230	   -321.99228717	  -1148.31890826	      0.00000000	      0.00000000	     -0.00000000	   -199.40498762	     -6.77344910	    -67.28451479	   -408.44174194	   -345.67817912	   -615.45145287	      0.00000000	      0.00000000	     -0.00000000	  -7738.13700604	    -35.30446103	     16.09362148	     76.05386353	    604.89887377	   -560.17491014	      0.00000000	      0.00000000	     -0.00000000	    -54.47563056
      4.43000000	      0.00000000	     -0.00000000	      0.00000000	      0.00000000	      0.00000000	      0.00000000	      0.00000000	      0.00000000	      0.00000000	     19.23254204	     79.67719269	   -491.72998047	   -327.75543933	  -1146.49033973	      0.00000000	      0.00000000	     -0.00000000	    -35.96453796	     -5.91767772	    -63.64328714	   -393.34899902	   -349.39052305	   -617.79600073	      0.00000000	      0.00000000	     -0.00000000	  -6787.88328819	    -35.74648907	     16.08347824	     76.77626038	    601.64225808	   -560.21893046	      0.00000000	      0.00000000	      0.00000000	      5.19791544
      4.44000000	      0.00000000	     -0.00000000	      0.00000000	      0.00000000	      0.00000000	      0.00000000	      0.00000000	      0.00000000	      0.00000000	     19.79954147	     75.99161530	   -482.90100098	   -332.39621580	  -1144.03222584	      0.00000000	      0.00000000	      0.00000000	    105.89090195	     -5.48961692	    -60.52632475	   -377.06317139	   -352.99619606	   -618.54153805	      0.00000000	      0.00000000	     -0.00000000	  -6128.37545955	    -35.30967954	     16.03602718	     77.22950745	    599.42267788	   -560.61992220	      0.00000000	      0.00000000	      0.00000000	     40.65278576
      4.45000000	      0.00000000	     -0.00000000	      0.00000000	      0.00000000	      0.00000000	      0.00000000	      0.00000000	      0.00000000	      0.00000000	     20.42920685	     73.71585083	   -473.82330322	   -337.13446692	  -1144.30394773	      0.00000000	      0.00000000	     -0.00000000	    -13.50676124	     -5.08272385	    -57.21737245	   -358.66198730	   -357.13476349	   -619.59384476	      0.00000000	      0.00000000	     -0.00000000	  -5264.23566346	    -35.15225077	     16.31119463	     75.35060883	    606.70163120	   -563.68630193	      0.00000000	      0.00000000	     -0.00000000	    -85.35238166
      4.46000000	      0.00000000	     -0.00000000	      0.00000000	      0.00000000	      0.00000000	      0.00000000	      0.00000000	      0.00000000	      0.00000000	     19.33219719	     73.08692932	   -462.64642334	   -342.00689525	  -1142.44872816	      0.00000000	      0.00000000	     -0.00000000	    -76.54236459	     -5.20764911	    -53.19093659	   -340.40347290	   -359.94212359	   -621.06363214	      0.00000000	      0.00000000	     -0.00000000	  -4321.47106203	    -35.34088754	     16.41571735	     76.01455688	    605.03755653	   -562.56697279	      0.00000000	     -0.00000000	     -0.00000000	    -99.02802204
      4.47000000	      0.00000000	     -0.00000000	      0.00000000	      0.00000000	      0.00000000	      0.00000000	      0.00000000	      0.00000000	      0.00000000	     17.15505409	     72.22689056	   -452.03347778	   -346.97886024	  -1140.45157344	      0.00000000	      0.00000000	      0.00000000	     22.49433965	     -5.97006988	    -48.98286767	   -324.55154419	   -363.67599220	   -621.90626421	      0.00000000	      0.00000000	     -0.00000000	  -3687.32696032	    -35.36743785	     16.27991604	     76.77138519	    600.16510036	   -563.23867923	      0.00000000	      0.00000000	      0.00000000	    109.49034066
      4.48000000	      0.00000000	     -0.00000000	      0.00000000	      0.00000000	      0.00000000	      0.00000000	      0.00000000	      0.00000000	      0.00000000	     13.28333855	     70.52018738	   -438.71957397	   -351.72320936	  -1138.91634675	      0.00000000	      0.00000000	     -0.00000000	   -225.90634048	     -6.29846967	    -45.07047980	   -307.60260010	   -364.60996775	   -621.75070396	      0.00000000	      0.00000000	     -0.00000000	  -3043.12016803	    -35.20648432	     16.28450701	     76.05120850	    602.70970539	   -557.97437963	      0.00000000	     -0.00000000	     -0.00000000	   -118.95325819
      4.49000000	      0.00000000	     -0.00000000	      0.00000000	      0.00000000	      0.00000000	      0.00000000	      0.00000000	      0.00000000	      0.00000000	      9.42076588	     69.37026215	   -426.35989380	   -356.57904850	  -1137.04542837	      0.00000000	      0.00000000	     -0.00000000	   -418.18621246	     -7.46050921	    -42.65499431	   -290.66918945	   -364.26696359	   -620.82010994	      0.00000000	      0.00000000	     -0.00000000	  -2522.75486751	    -35.33609632	     15.96035789	     76.13982391	    601.72381807	   -561.39003690	      0.00000000	      0.00000000	      0.00000000	     47.53148338
